<?xml version="1.0" encoding="UTF-8" standalone="no"?>
<!-- Created with Inkscape (http://www.inkscape.org/) -->

<svg
   xmlns:dc="http://purl.org/dc/elements/1.1/"
   xmlns:cc="http://creativecommons.org/ns#"
   xmlns:rdf="http://www.w3.org/1999/02/22-rdf-syntax-ns#"
   xmlns:svg="http://www.w3.org/2000/svg"
   xmlns="http://www.w3.org/2000/svg"
   xmlns:sodipodi="http://sodipodi.sourceforge.net/DTD/sodipodi-0.dtd"
   xmlns:inkscape="http://www.inkscape.org/namespaces/inkscape"
   width="120"
   height="120"
   id="svg4143"
   version="1.1"
   inkscape:version="0.48.2 r9819"
   sodipodi:docname="trendCirc.svg">
  <defs
     id="defs4145" />
  <sodipodi:namedview
     id="base"
     pagecolor="#ffffff"
     bordercolor="#666666"
     borderopacity="1.0"
     inkscape:pageopacity="0.0"
     inkscape:pageshadow="2"
     inkscape:zoom="2.8"
     inkscape:cx="67.90333"
     inkscape:cy="59.771893"
     inkscape:document-units="px"
     inkscape:current-layer="layer1"
     showgrid="false"
     fit-margin-top="0"
     fit-margin-left="0"
     fit-margin-right="0"
     fit-margin-bottom="0"
     inkscape:window-width="1656"
     inkscape:window-height="761"
     inkscape:window-x="76"
     inkscape:window-y="75"
     inkscape:window-maximized="0" />
  <metadata
     id="metadata4148">
    <rdf:RDF>
      <cc:Work
         rdf:about="">
        <dc:format>image/svg+xml</dc:format>
        <dc:type
           rdf:resource="http://purl.org/dc/dcmitype/StillImage" />
        <dc:title />
      </cc:Work>
    </rdf:RDF>
  </metadata>
  <g
     inkscape:label="Layer 1"
     inkscape:groupmode="layer"
     id="layer1"
     transform="translate(-315,-472.36218)">
    <path
       style="fill:#234b5f;fill-opacity:1;stroke:none"
       d="m 435,532.36218 c 0,33.13708 -26.86292,60 -60,60 -18.29394,0 -34.67565,-8.18727 -45.68086,-21.09757 0.9678,-1.18514 15.06117,-20.66593 19.65597,-26.27579 2.43225,3.10924 2.99976,5.58146 5.80407,9.29483 0.38058,-0.47398 7.65646,-10.0756 14.06603,-18.70296 6.26536,10.58688 9.36595,15.64794 15.03047,25.10298 3.91589,-5.54564 24.98929,-38.41048 24.98929,-38.41048 l 5.83182,3.26386 3.55763,-24.03176 -19.45838,14.14914 5.04235,3.53276 c 0,0 -18.13429,28.68989 -19.87342,31.08768 -7.14425,-11.47309 -9.30486,-16.772 -14.17908,-24.85042 -4.81824,6.00678 -13.70804,18.65375 -13.84599,18.44359 -2.15113,-3.27726 -4.30344,-7.50146 -5.98264,-9.74571 -2.65052,3.55148 -23.18228,31.16879 -24.17875,32.55999 C 318.98495,556.95724 315,545.12508 315,532.36218 c 0,-33.13709 26.86291,-60 60,-60 33.13708,0 60,26.86291 60,60 z"
       id="path4183"
       inkscape:connector-curvature="0"
       sodipodi:nodetypes="ssccccccccccccsccsss" />
  </g>
</svg>
